<mxfile host="app.diagrams.net" agent="Mozilla/5.0 (Windows NT 10.0; Win64; x64) AppleWebKit/537.36 (KHTML, like Gecko) Chrome/140.0.0.0 Safari/537.36" version="28.2.3">
  <diagram name="第 1 页" id="SyS8LunrSEVilqCfoV8c">
    <mxGraphModel dx="1426" dy="777" grid="1" gridSize="10" guides="1" tooltips="1" connect="1" arrows="1" fold="1" page="1" pageScale="1" pageWidth="827" pageHeight="1169" math="0" shadow="0">
      <root>
        <mxCell id="0" />
        <mxCell id="1" parent="0" />
        <mxCell id="QeYhUERFiiR-BSFWQokM-41" value="" style="edgeStyle=orthogonalEdgeStyle;rounded=0;orthogonalLoop=1;jettySize=auto;html=1;" edge="1" parent="1" source="QeYhUERFiiR-BSFWQokM-1" target="QeYhUERFiiR-BSFWQokM-8">
          <mxGeometry relative="1" as="geometry" />
        </mxCell>
        <mxCell id="QeYhUERFiiR-BSFWQokM-1" value="&lt;p class=&quot;MsoNormal&quot;&gt;&lt;span style=&quot;mso-spacerun:&#39;yes&#39;;font-family:宋体;mso-ascii-font-family:Calibri;&lt;br/&gt;mso-hansi-font-family:Calibri;mso-bidi-font-family:&#39;Times New Roman&#39;;font-size:10.5000pt;&lt;br/&gt;mso-font-kerning:1.0000pt;&quot;&gt;&lt;font face=&quot;Calibri&quot;&gt;JwtConsumerBuilder&lt;/font&gt;&lt;/span&gt;&lt;/p&gt;" style="rounded=0;whiteSpace=wrap;html=1;" vertex="1" parent="1">
          <mxGeometry x="80" y="350" width="140" height="60" as="geometry" />
        </mxCell>
        <mxCell id="QeYhUERFiiR-BSFWQokM-3" value="setExpectedAudience" style="rounded=0;whiteSpace=wrap;html=1;" vertex="1" parent="1">
          <mxGeometry x="240" y="422" width="130" height="30" as="geometry" />
        </mxCell>
        <mxCell id="QeYhUERFiiR-BSFWQokM-6" value="设置预期audience的限制" style="text;html=1;align=center;verticalAlign=middle;resizable=0;points=[];autosize=1;strokeColor=none;fillColor=none;" vertex="1" parent="1">
          <mxGeometry x="230" y="388" width="160" height="30" as="geometry" />
        </mxCell>
        <mxCell id="QeYhUERFiiR-BSFWQokM-7" value="build" style="text;html=1;align=center;verticalAlign=middle;resizable=0;points=[];autosize=1;strokeColor=none;fillColor=none;" vertex="1" parent="1">
          <mxGeometry x="100" y="418" width="50" height="30" as="geometry" />
        </mxCell>
        <mxCell id="QeYhUERFiiR-BSFWQokM-28" value="" style="edgeStyle=orthogonalEdgeStyle;rounded=0;orthogonalLoop=1;jettySize=auto;html=1;" edge="1" parent="1" source="QeYhUERFiiR-BSFWQokM-8" target="QeYhUERFiiR-BSFWQokM-25">
          <mxGeometry relative="1" as="geometry" />
        </mxCell>
        <mxCell id="QeYhUERFiiR-BSFWQokM-8" value="consumer对象" style="rounded=0;whiteSpace=wrap;html=1;" vertex="1" parent="1">
          <mxGeometry x="100" y="460" width="100" height="40" as="geometry" />
        </mxCell>
        <mxCell id="QeYhUERFiiR-BSFWQokM-17" value="" style="edgeStyle=orthogonalEdgeStyle;rounded=0;orthogonalLoop=1;jettySize=auto;html=1;" edge="1" parent="1" source="QeYhUERFiiR-BSFWQokM-9" target="QeYhUERFiiR-BSFWQokM-10">
          <mxGeometry relative="1" as="geometry" />
        </mxCell>
        <mxCell id="QeYhUERFiiR-BSFWQokM-9" value="processToClaims" style="rounded=0;whiteSpace=wrap;html=1;" vertex="1" parent="1">
          <mxGeometry x="230" y="530" width="100" height="40" as="geometry" />
        </mxCell>
        <mxCell id="QeYhUERFiiR-BSFWQokM-45" value="" style="edgeStyle=orthogonalEdgeStyle;rounded=0;orthogonalLoop=1;jettySize=auto;html=1;" edge="1" parent="1" source="QeYhUERFiiR-BSFWQokM-10" target="QeYhUERFiiR-BSFWQokM-11">
          <mxGeometry relative="1" as="geometry" />
        </mxCell>
        <mxCell id="QeYhUERFiiR-BSFWQokM-10" value="process" style="rounded=0;whiteSpace=wrap;html=1;" vertex="1" parent="1">
          <mxGeometry x="360" y="530" width="70" height="40" as="geometry" />
        </mxCell>
        <mxCell id="QeYhUERFiiR-BSFWQokM-46" value="" style="edgeStyle=orthogonalEdgeStyle;rounded=0;orthogonalLoop=1;jettySize=auto;html=1;" edge="1" parent="1" source="QeYhUERFiiR-BSFWQokM-11" target="QeYhUERFiiR-BSFWQokM-13">
          <mxGeometry relative="1" as="geometry" />
        </mxCell>
        <mxCell id="QeYhUERFiiR-BSFWQokM-11" value="processContext" style="rounded=0;whiteSpace=wrap;html=1;" vertex="1" parent="1">
          <mxGeometry x="450" y="530" width="100" height="40" as="geometry" />
        </mxCell>
        <mxCell id="QeYhUERFiiR-BSFWQokM-13" value="validate" style="rounded=0;whiteSpace=wrap;html=1;" vertex="1" parent="1">
          <mxGeometry x="580" y="530" width="70" height="40" as="geometry" />
        </mxCell>
        <mxCell id="QeYhUERFiiR-BSFWQokM-25" value="解析结果" style="rounded=0;whiteSpace=wrap;html=1;" vertex="1" parent="1">
          <mxGeometry x="95" y="600" width="110" height="40" as="geometry" />
        </mxCell>
        <mxCell id="QeYhUERFiiR-BSFWQokM-27" value="解析assertion" style="text;html=1;align=center;verticalAlign=middle;resizable=0;points=[];autosize=1;strokeColor=none;fillColor=none;" vertex="1" parent="1">
          <mxGeometry x="140" y="520" width="100" height="30" as="geometry" />
        </mxCell>
        <mxCell id="QeYhUERFiiR-BSFWQokM-34" value="逐层调用" style="text;html=1;align=center;verticalAlign=middle;resizable=0;points=[];autosize=1;strokeColor=none;fillColor=none;" vertex="1" parent="1">
          <mxGeometry x="410" y="470" width="70" height="30" as="geometry" />
        </mxCell>
        <mxCell id="QeYhUERFiiR-BSFWQokM-37" value="GeneralAudValidator" style="rounded=0;whiteSpace=wrap;html=1;" vertex="1" parent="1">
          <mxGeometry x="300" y="630" width="140" height="31.87" as="geometry" />
        </mxCell>
        <mxCell id="QeYhUERFiiR-BSFWQokM-38" value="StrictAudValidator" style="rounded=0;whiteSpace=wrap;html=1;" vertex="1" parent="1">
          <mxGeometry x="300" y="685" width="140" height="36.87" as="geometry" />
        </mxCell>
        <mxCell id="QeYhUERFiiR-BSFWQokM-43" value="" style="endArrow=classic;html=1;rounded=0;entryX=1.08;entryY=0.633;entryDx=0;entryDy=0;entryPerimeter=0;exitX=0;exitY=0.5;exitDx=0;exitDy=0;" edge="1" parent="1" source="QeYhUERFiiR-BSFWQokM-3" target="QeYhUERFiiR-BSFWQokM-7">
          <mxGeometry width="50" height="50" relative="1" as="geometry">
            <mxPoint x="390" y="530" as="sourcePoint" />
            <mxPoint x="440" y="480" as="targetPoint" />
          </mxGeometry>
        </mxCell>
        <mxCell id="QeYhUERFiiR-BSFWQokM-44" value="" style="endArrow=classic;html=1;rounded=0;" edge="1" parent="1">
          <mxGeometry width="50" height="50" relative="1" as="geometry">
            <mxPoint x="230" y="550" as="sourcePoint" />
            <mxPoint x="150" y="550" as="targetPoint" />
          </mxGeometry>
        </mxCell>
        <mxCell id="QeYhUERFiiR-BSFWQokM-47" value="" style="endArrow=none;html=1;rounded=0;exitX=1;exitY=0.5;exitDx=0;exitDy=0;entryX=1;entryY=0.5;entryDx=0;entryDy=0;" edge="1" parent="1" source="QeYhUERFiiR-BSFWQokM-37" target="QeYhUERFiiR-BSFWQokM-38">
          <mxGeometry width="50" height="50" relative="1" as="geometry">
            <mxPoint x="180" y="560" as="sourcePoint" />
            <mxPoint x="230" y="510" as="targetPoint" />
            <Array as="points">
              <mxPoint x="470" y="646" />
              <mxPoint x="470" y="703" />
            </Array>
          </mxGeometry>
        </mxCell>
        <mxCell id="QeYhUERFiiR-BSFWQokM-48" value="" style="endArrow=classic;html=1;rounded=0;" edge="1" parent="1">
          <mxGeometry width="50" height="50" relative="1" as="geometry">
            <mxPoint x="470" y="680" as="sourcePoint" />
            <mxPoint x="710" y="550" as="targetPoint" />
            <Array as="points">
              <mxPoint x="710" y="680" />
            </Array>
          </mxGeometry>
        </mxCell>
        <mxCell id="QeYhUERFiiR-BSFWQokM-49" value="" style="endArrow=classic;html=1;rounded=0;exitX=1;exitY=0.5;exitDx=0;exitDy=0;" edge="1" parent="1" source="QeYhUERFiiR-BSFWQokM-13">
          <mxGeometry width="50" height="50" relative="1" as="geometry">
            <mxPoint x="390" y="530" as="sourcePoint" />
            <mxPoint x="760" y="550" as="targetPoint" />
          </mxGeometry>
        </mxCell>
        <mxCell id="QeYhUERFiiR-BSFWQokM-50" value="根据setExpectedAudience的设置选用其中之一" style="text;html=1;align=center;verticalAlign=middle;resizable=0;points=[];autosize=1;strokeColor=none;fillColor=none;" vertex="1" parent="1">
          <mxGeometry x="470" y="685" width="270" height="30" as="geometry" />
        </mxCell>
        <mxCell id="QeYhUERFiiR-BSFWQokM-51" value="验证audience参数" style="text;html=1;align=center;verticalAlign=middle;resizable=0;points=[];autosize=1;strokeColor=none;fillColor=none;" vertex="1" parent="1">
          <mxGeometry x="580" y="605" width="120" height="30" as="geometry" />
        </mxCell>
        <mxCell id="QeYhUERFiiR-BSFWQokM-52" value="audience解析结果" style="rounded=0;whiteSpace=wrap;html=1;" vertex="1" parent="1">
          <mxGeometry x="760" y="520" width="120" height="60" as="geometry" />
        </mxCell>
        <mxCell id="QeYhUERFiiR-BSFWQokM-53" value="" style="endArrow=none;html=1;rounded=0;exitX=0.5;exitY=0;exitDx=0;exitDy=0;entryX=0.414;entryY=0;entryDx=0;entryDy=0;entryPerimeter=0;" edge="1" parent="1" source="QeYhUERFiiR-BSFWQokM-9" target="QeYhUERFiiR-BSFWQokM-13">
          <mxGeometry width="50" height="50" relative="1" as="geometry">
            <mxPoint x="390" y="530" as="sourcePoint" />
            <mxPoint x="440" y="480" as="targetPoint" />
            <Array as="points">
              <mxPoint x="280" y="510" />
              <mxPoint x="609" y="510" />
            </Array>
          </mxGeometry>
        </mxCell>
      </root>
    </mxGraphModel>
  </diagram>
</mxfile>
